<svg width="41" height="41" viewBox="0 0 41 41" fill="none" xmlns="http://www.w3.org/2000/svg">
<path d="M15.0873 36.8086H30.0908C31.4745 36.8086 32.6581 35.9751 33.1582 34.7748L38.1927 23.022C38.3428 22.6386 38.4261 22.2385 38.4261 21.8051V18.471C38.4261 16.6372 36.9258 15.1369 35.092 15.1369H24.5729L26.1566 7.51842L26.2066 6.98496C26.2066 6.30147 25.9232 5.66798 25.4731 5.21788L23.706 3.46747L12.7201 14.4534C12.12 15.0535 11.7532 15.887 11.7532 16.8039V33.4745C11.7532 35.3083 13.2535 36.8086 15.0873 36.8086ZM15.0873 16.8039L22.3223 9.5689L20.0885 18.471H35.092V21.8051L30.0908 33.4745H15.0873V16.8039ZM1.75085 16.8039H8.41908V36.8086H1.75085V16.8039Z" fill="black"/>
</svg>
