<svg width="21" height="21" viewBox="0 0 21 21" fill="none" xmlns="http://www.w3.org/2000/svg">
<g clip-path="url(#clip0_5_1054)">
<path d="M10.9082 0.31543L12.4986 6.22228C12.6929 6.94282 12.7896 7.30308 12.9806 7.59747C13.1507 7.85849 13.3725 8.08032 13.6336 8.25045C13.9279 8.44142 14.2882 8.53899 15.0087 8.73247L20.9156 10.3228L15.0087 11.9131C14.2882 12.1075 13.9279 12.2042 13.6336 12.3952C13.3725 12.5653 13.1507 12.7871 12.9806 13.0482C12.7896 13.3425 12.692 13.7028 12.4986 14.4233L10.9082 20.3302L9.31787 14.4233C9.12356 13.7028 9.02682 13.3425 8.83585 13.0482C8.66573 12.7871 8.44389 12.5653 8.18287 12.3952C7.88849 12.2042 7.52822 12.1066 6.80769 11.9131L0.900833 10.3228L6.80769 8.73247C7.52822 8.53816 7.88849 8.44142 8.18287 8.25045C8.44389 8.08032 8.66573 7.85849 8.83585 7.59747C9.02682 7.30308 9.1244 6.94282 9.31787 6.22228L10.9082 0.31543Z" stroke="white" stroke-width="2.41011" stroke-linecap="round" stroke-linejoin="round"/>
</g>
<defs>
<clipPath id="clip0_5_1054">
<rect width="20.0148" height="20.0148" fill="white" transform="translate(0.901016 0.31543)"/>
</clipPath>
</defs>
</svg>
